<?xml version="1.0" standalone="no"?><!DOCTYPE svg PUBLIC "-//W3C//DTD SVG 1.1//EN" "http://www.w3.org/Graphics/SVG/1.1/DTD/svg11.dtd"><svg t="1631580794815" class="icon" viewBox="0 0 1024 1024" version="1.1" xmlns="http://www.w3.org/2000/svg" p-id="24428" xmlns:xlink="http://www.w3.org/1999/xlink" width="200" height="200"><defs><style type="text/css"></style></defs><path d="M907.748 113.778c32.768 0.028 59.335 25.486 59.363 56.889v568.889c-0.028 31.402-26.595 56.86-59.363 56.888H116.252c-32.768-0.028-59.335-25.486-59.363-56.888v-568.89c0.028-31.402 26.595-56.86 59.363-56.888h791.496z m-791.439 56.889c-1.934 0-2.531 0.569-2.531 0v568.832c0-0.54 0.597 0.057 2.474 0.057h791.439c1.934 0 2.531-0.57 2.531 0V170.724c0 0.54-0.597-0.057-2.531-0.057H116.338zM780.06 853.333c9.046 0 16.384 12.743 16.384 28.445s-7.338 28.444-16.384 28.444H243.94c-9.046 0-16.384-12.743-16.384-28.444s7.338-28.445 16.384-28.445h536.12z m-179.768-500.28a28.444 28.444 0 1 1-5.945-56.577l108.885-11.434a28.67 28.67 0 0 1 8.391-0.57 28.444 28.444 0 0 1 27.022 25.43l11.862 113.095a28.444 28.444 0 1 1-56.576 5.945l-5.007-47.701-135.281 160.825a28.444 28.444 0 0 1-36.125 6.258l-127.914-74.752L276.28 588.828a28.444 28.444 0 0 1-40.562-39.85l128.853-131.044a28.444 28.444 0 0 1 34.617-4.608l126.35 73.814L641.992 348.7l-41.671 4.38z" p-id="24429"></path></svg>